<svg xmlns="http://www.w3.org/2000/svg" width="23.206" height="28.184" viewBox="0 0 23.206 28.184"><g transform="translate(-0.403 -0.401)"><path d="M21.752,27.172H.442A.444.444,0,0,1,0,26.724V.447A.444.444,0,0,1,.442,0h14.1a.439.439,0,0,1,.313.131l7.214,7.3a.45.45,0,0,1,.129.316V26.724a.445.445,0,0,1-.442.447M.884,26.277H21.31V7.937L14.355.895H.884Z" transform="translate(0.903 0.914)" fill="#056ed6" stroke="#056ed6" stroke-width="1"/><path d="M39.552,8.2H32.338a.444.444,0,0,1-.442-.447V.448a.447.447,0,0,1,.273-.413.44.44,0,0,1,.482.1l7.214,7.3a.452.452,0,0,1,.1.488.44.44,0,0,1-.408.276M32.78,7.3h5.705L32.78,1.528Z" transform="translate(-16.897 0.914)" fill="#056ed6" stroke="#056ed6" stroke-width="1"/><path d="M23.051,26.364H11.607a.447.447,0,0,1,0-.895H23.051a.447.447,0,0,1,0,.895" transform="translate(-5.328 -13.162)" fill="#056ed6" stroke="#056ed6" stroke-width="1"/><path d="M23.051,36.969H11.607a.447.447,0,0,1,0-.895H23.051a.447.447,0,0,1,0,.895" transform="translate(-5.328 -19.022)" fill="#056ed6" stroke="#056ed6" stroke-width="1"/><path d="M16.765,15.758H11.606a.447.447,0,0,1,0-.895h5.159a.447.447,0,0,1,0,.895" transform="translate(-5.327 -7.3)" fill="#056ed6" stroke="#056ed6" stroke-width="1"/><path d="M23.051,47.575H11.607a.447.447,0,0,1,0-.895H23.051a.447.447,0,0,1,0,.895" transform="translate(-5.328 -24.883)" fill="#056ed6" stroke="#056ed6" stroke-width="1"/></g></svg>