<svg id="modify_ico" xmlns="http://www.w3.org/2000/svg" xmlns:xlink="http://www.w3.org/1999/xlink" width="24" height="24" viewBox="0 0 24 24">
  <defs>
    <clipPath id="clip-path">
      <rect id="사각형_21870" data-name="사각형 21870" width="15.417" height="19.047" transform="translate(0 0)" fill="#757575"/>
    </clipPath>
  </defs>
  <g id="그룹_44706" data-name="그룹 44706">
    <rect id="사각형_21845" data-name="사각형 21845" width="24" height="24" fill="none"/>
    <path id="패스_52683" data-name="패스 52683" d="M5,0H19a5,5,0,0,1,5,5V19a5,5,0,0,1-5,5H5a5,5,0,0,1-5-5V5A5,5,0,0,1,5,0Z" fill="none"/>
    <g id="그룹_44705" data-name="그룹 44705" transform="translate(4.292 2.477)">
      <g id="그룹_44704" data-name="그룹 44704" transform="translate(0 0)" clip-path="url(#clip-path)">
        <path id="패스_52680" data-name="패스 52680" d="M26.9,4.618a.7.7,0,0,1-.5-.206L23.194,1.2a.7.7,0,0,1,1-1L27.4,3.415a.7.7,0,0,1-.5,1.2" transform="translate(-12.189 0)" fill="#757575"/>
        <path id="패스_52681" data-name="패스 52681" d="M.7,17.5a.7.7,0,0,1-.7-.807l.549-3.757a.705.705,0,0,1,.2-.4l8.4-8.4a.7.7,0,0,1,1,0l3.209,3.21a.7.7,0,0,1,0,1l-8.4,8.405a.705.705,0,0,1-.4.2l-3.757.548a.682.682,0,0,1-.1.008m3.757-1.253h0ZM1.917,13.371l-.378,2.591,2.59-.378L11.87,7.842,9.657,5.63Z" transform="translate(0 -2.083)" fill="#757575"/>
        <path id="패스_52682" data-name="패스 52682" d="M13.547,38.957H.8a.7.7,0,1,1,0-1.409h12.75a.7.7,0,1,1,0,1.409" transform="translate(-0.049 -19.91)" fill="#757575"/>
      </g>
    </g>
  </g>
</svg>
