<svg id="datepicker_cal" xmlns="http://www.w3.org/2000/svg" xmlns:xlink="http://www.w3.org/1999/xlink" width="24" height="24" viewBox="0 0 24 24">
  <defs>
    <clipPath id="clip-path">
      <rect id="사각형_21861" data-name="사각형 21861" width="18.009" height="16.858" transform="translate(0 0)" fill="#757575"/>
    </clipPath>
  </defs>
  <rect id="사각형_21845" data-name="사각형 21845" width="24" height="24" fill="none"/>
  <g id="그룹_44693" data-name="그룹 44693" transform="translate(3 3.571)">
    <g id="그룹_44692" data-name="그룹 44692" transform="translate(0 0)" clip-path="url(#clip-path)">
      <path id="패스_52668" data-name="패스 52668" d="M16.617,25.149H1.392A1.394,1.394,0,0,1,0,23.757V11.341A1.394,1.394,0,0,1,1.392,9.949H16.617a1.394,1.394,0,0,1,1.392,1.392V23.757a1.393,1.393,0,0,1-1.392,1.392M1.392,11.069a.276.276,0,0,0-.272.272V23.757a.276.276,0,0,0,.272.272H16.617a.276.276,0,0,0,.272-.272V11.341a.276.276,0,0,0-.272-.272Z" transform="translate(0 -8.292)" fill="#757575"/>
      <path id="패스_52669" data-name="패스 52669" d="M26.413,3.022a.754.754,0,1,1-1.5,0V.817a.754.754,0,1,1,1.5,0Z" transform="translate(-20.761 0.001)" fill="#757575"/>
      <path id="패스_52670" data-name="패스 52670" d="M76.528,3.022a.754.754,0,1,1-1.5,0V.817a.754.754,0,1,1,1.5,0Z" transform="translate(-62.527 0.001)" fill="#757575"/>
      <path id="패스_52671" data-name="패스 52671" d="M51.47,3.022a.754.754,0,1,1-1.5,0V.817a.754.754,0,1,1,1.5,0Z" transform="translate(-41.644 0.001)" fill="#757575"/>
      <path id="패스_52672" data-name="패스 52672" d="M18.09,27.327H1.521a.56.56,0,0,1,0-1.12H18.09a.56.56,0,0,1,0,1.12" transform="translate(-0.801 -21.841)" fill="#757575"/>
      <path id="패스_52673" data-name="패스 52673" d="M33.217,49.626l.964-1.12a3.353,3.353,0,0,0,1.056-1.946c0-.586-.3-.767-.742-.767a2.768,2.768,0,0,0-1.056.353l-.236-.969a2.9,2.9,0,0,1,1.47-.413c1.128,0,1.756.541,1.756,1.6a4.237,4.237,0,0,1-1.278,2.585l-.378.421H36.4v1.014H33.217Z" transform="translate(-27.672 -37.308)" fill="#757575"/>
      <path id="패스_52674" data-name="패스 52674" d="M56.3,50.611l.271-.984a2.127,2.127,0,0,0,.956.308c.571,0,.907-.24.907-.8,0-.593-.393-.789-.964-.789a2.748,2.748,0,0,0-1.021.271L56.62,45.4h2.726V46.4H57.534l-.043,1.037a2.134,2.134,0,0,1,.521-.075c.928,0,1.556.6,1.556,1.788a1.761,1.761,0,0,1-1.82,1.856,2.888,2.888,0,0,1-1.449-.4" transform="translate(-46.921 -37.835)" fill="#757575"/>
    </g>
  </g>
</svg>
