<svg id="delete" xmlns="http://www.w3.org/2000/svg" xmlns:xlink="http://www.w3.org/1999/xlink" width="24" height="24" viewBox="0 0 24 24">
  <defs>
    <clipPath id="clip-path">
      <rect id="사각형_21871" data-name="사각형 21871" width="13.399" height="18.066" fill="#757575"/>
    </clipPath>
  </defs>
  <rect id="사각형_21845" data-name="사각형 21845" width="24" height="24" fill="none" opacity="0.103"/>
  <path id="패스_52683" data-name="패스 52683" d="M5,0H19a5,5,0,0,1,5,5V19a5,5,0,0,1-5,5H5a5,5,0,0,1-5-5V5A5,5,0,0,1,5,0Z" fill="none"/>
  <g id="그룹_44708" data-name="그룹 44708" transform="translate(5.301 2.967)">
    <g id="그룹_44707" data-name="그룹 44707" clip-path="url(#clip-path)">
      <path id="패스_52684" data-name="패스 52684" d="M10.528,25.194H3.6A2.939,2.939,0,0,1,.667,22.259V13.677a.677.677,0,1,1,1.355,0v8.581A1.582,1.582,0,0,0,3.6,23.84h6.925a1.582,1.582,0,0,0,1.581-1.581V13.677a.677.677,0,1,1,1.355,0v8.581a2.939,2.939,0,0,1-2.936,2.936" transform="translate(-0.366 -7.129)" fill="#757575"/>
      <path id="패스_52685" data-name="패스 52685" d="M12.722,7.688H.677a.677.677,0,0,1,0-1.355H12.722a.677.677,0,1,1,0,1.355" transform="translate(0 -3.473)" fill="#757575"/>
      <path id="패스_52686" data-name="패스 52686" d="M13.624,1.355H10.01A.677.677,0,0,1,10.01,0h3.613a.677.677,0,1,1,0,1.355" transform="translate(-5.118)" fill="#757575"/>
      <path id="패스_52687" data-name="패스 52687" d="M10.01,23.839a.677.677,0,0,1-.677-.677V18.344a.677.677,0,0,1,1.355,0v4.817a.677.677,0,0,1-.677.677" transform="translate(-5.118 -9.688)" fill="#757575"/>
      <path id="패스_52688" data-name="패스 52688" d="M18.01,23.839a.677.677,0,0,1-.677-.677V18.344a.677.677,0,0,1,1.355,0v4.817a.677.677,0,0,1-.677.677" transform="translate(-9.505 -9.688)" fill="#757575"/>
    </g>
  </g>
</svg>
